<?xml version="1.0" encoding="iso-8859-1"?>
<!-- Generator: Adobe Illustrator 16.0.0, SVG Export Plug-In . SVG Version: 6.00 Build 0)  -->
<!DOCTYPE svg PUBLIC "-//W3C//DTD SVG 1.1//EN" "http://www.w3.org/Graphics/SVG/1.1/DTD/svg11.dtd">
<svg xmlns="http://www.w3.org/2000/svg" xmlns:xlink="http://www.w3.org/1999/xlink" version="1.1" id="Capa_1" x="0px" y="0px" width="512px" height="512px" viewBox="0 0 612 612" style="enable-background:new 0 0 612 612;" xml:space="preserve">
<g>
	<g id="Brightness">
		<g>
			<path d="M114.75,459c-21.114,0-38.25,17.136-38.25,38.25s17.136,38.25,38.25,38.25S153,518.364,153,497.25     S135.864,459,114.75,459z M306,76.5c21.114,0,38.25-17.136,38.25-38.25S327.114,0,306,0s-38.25,17.136-38.25,38.25     S284.886,76.5,306,76.5z M38.25,267.75C17.136,267.75,0,284.886,0,306s17.136,38.25,38.25,38.25S76.5,327.114,76.5,306     S59.364,267.75,38.25,267.75z M114.75,153c21.114,0,38.25-17.136,38.25-38.25S135.864,76.5,114.75,76.5S76.5,93.636,76.5,114.75     S93.636,153,114.75,153z M306,535.5c-21.114,0-38.25,17.136-38.25,38.25S284.886,612,306,612s38.25-17.136,38.25-38.25     S327.114,535.5,306,535.5z M497.25,459c-21.114,0-38.25,17.136-38.25,38.25s17.136,38.25,38.25,38.25s38.25-17.136,38.25-38.25     S518.364,459,497.25,459z M573.75,267.75c-21.114,0-38.25,17.136-38.25,38.25s17.136,38.25,38.25,38.25S612,327.114,612,306     S594.864,267.75,573.75,267.75z M306,153c-84.494,0-153,68.506-153,153s68.506,153,153,153s153-68.506,153-153     S390.494,153,306,153z M306,382.5c-42.266,0-76.5-34.233-76.5-76.5c0-42.266,34.234-76.5,76.5-76.5     c42.267,0,76.5,34.234,76.5,76.5C382.5,348.267,348.267,382.5,306,382.5z M497.25,153c21.114,0,38.25-17.136,38.25-38.25     S518.364,76.5,497.25,76.5S459,93.636,459,114.75S476.136,153,497.25,153z" fill="#ff6600"/>
		</g>
	</g>
</g>
</svg>
